<?xml version="1.0" encoding="UTF-8"?>
<svg width="152px" height="146px" viewBox="0 0 152 146" version="1.1" xmlns="http://www.w3.org/2000/svg" xmlns:xlink="http://www.w3.org/1999/xlink">
    <!-- Generator: Sketch 51 (57462) - http://www.bohemiancoding.com/sketch -->
    <title>Group 12</title>
    <desc>Created with Sketch.</desc>
    <defs>
        <polygon id="path-1" points="0.259110665 0.414585937 47.8092648 0.414585937 47.8092648 53.2263773 0.259110665 53.2263773"></polygon>
        <polygon id="path-3" points="0 0.0989007955 44.1965693 0.0989007955 44.1965693 53.4676031 0 53.4676031"></polygon>
    </defs>
    <g id="Home" stroke="none" stroke-width="1" fill="none" fill-rule="evenodd">
        <g transform="translate(-824.000000, 0.000000)">
            <rect fill="#FFFFFF" x="0" y="0" width="1800" height="3252"></rect>
            <g id="Group-29" transform="translate(0.000000, -7.000000)">
                <g id="Group-12" transform="translate(825.000000, 0.000000)">
                    <rect id="Rectangle" stroke="#C3043F" stroke-width="2" fill="#FFFFFF" x="0" y="0" width="150" height="152"></rect>
                    <g id="Group-6" transform="translate(18.000000, 20.000000)">
                        <g id="Page-1">
                            <g id="Group" transform="translate(57.821625, 0.000000)">
                                <path d="M7.92869749,60.9534398 C8.3289825,60.3767602 8.49061884,60.1946273 9.05656991,60.003143 C9.25939889,59.9341195 10.8744191,60.6893695 12.0954227,60.851018 C14.0149102,61.1066273 15.2309886,60.9195961 17.041226,60.4106039 C17.5171801,60.2765648 16.1600617,58.7901117 15.776791,58.4494477 C15.1024854,57.8487211 14.4057925,57.4181039 13.4547798,56.875268 C13.0365849,56.6370258 12.6806268,56.4384164 12.3367578,56.262518 C11.7287186,56.7933305 11.2026169,57.3468539 10.7830788,57.8905805 C10.3975695,57.4243383 10.1239966,56.9990648 9.94937562,56.6098617 C10.0098213,56.9661117 9.78594829,57.2199398 9.64311729,57.594893 C9.4411838,58.1239242 9.23925031,58.3871039 8.92806678,58.8626977 C8.01242601,60.266768 7.09544201,61.277182 5.93533188,61.9545023 C4.78372892,62.6278148 4.10315486,62.851807 2.83379468,63.0125648 C2.6658899,63.0575414 2.56335604,63.0673383 2.38918281,63.0557602 C2.24948603,63.0464086 2.13799725,63.0820336 2.03949311,62.9849555 C1.93785475,62.8860961 1.98531583,62.7716508 1.96337627,62.632268 C1.90382604,62.2497445 1.92755659,62.0244164 1.96830148,61.6401117 C2.00188244,61.3421977 1.95442135,61.1404711 2.11292347,60.886643 C2.21053212,60.728557 2.28978318,60.6457289 2.44783755,60.5477602 C2.65156202,60.4212914 2.81319836,60.4609242 3.0437876,60.3932367 C3.69212395,60.201307 4.06778292,60.087307 4.65298706,59.7488695 C5.34520253,59.346307 5.7042949,59.0372602 6.22636684,58.4307445 C6.64411395,57.9457992 6.82321239,57.6225023 7.12588875,57.0582914 C7.3372249,56.667307 7.30006198,56.3489086 7.60363383,56.0242758 C7.74780807,55.8715336 7.83422307,55.776682 8.02630614,55.6889555 C8.29943126,55.564268 8.49867827,55.5780727 8.79598168,55.6279477 C9.11432915,55.6813852 9.30506899,55.7628773 9.54729963,55.9748461 C9.66998206,56.0826117 9.7568448,56.1730102 9.8257977,56.2865648 C9.70983146,55.926307 9.68296669,55.599893 9.73624848,55.3028695 C8.3804733,54.9675492 7.36408967,54.980018 5.87981136,54.9261352 C5.37072405,54.9069867 4.87730786,55.1260805 4.41747262,54.7845258 C4.17031677,54.601057 4.05927574,54.3654867 4.01450113,54.1058695 C3.78346415,54.1539633 3.54929294,54.1922602 3.30840554,54.2122992 C3.64824483,54.7542445 4.03017225,55.286393 4.53164787,55.926307 C4.85044309,56.3346586 5.0613315,56.540393 5.38594742,56.945182 C5.67563915,57.3032133 6.08398358,57.4189945 6.10995286,57.8776664 C6.13681762,58.3372289 5.76832259,58.6436039 5.49698845,58.8880805 C5.26102626,59.1013852 4.87462138,59.3672367 4.6543303,59.1784242 C3.51078678,58.1929477 2.99364004,57.7177992 2.11113248,56.6254477 C1.55637507,55.9410023 1.11982263,55.3509633 0.744611404,54.7569164 L0.744611404,56.3747367 C0.898188314,56.4019008 1.07012281,56.4860648 1.24026633,56.5644398 C1.56801647,56.7145102 1.66786385,56.7951117 1.95442135,57.1486898 C2.14784766,57.3878227 2.30276781,57.5726273 2.35381087,57.9003773 C2.42903221,58.3879945 2.10217756,58.6315805 1.91188547,59.0875805 C1.65398372,59.7056742 1.38130635,60.0009164 1.16549273,60.6354867 C1.00116992,61.1173148 0.964454736,61.4072133 0.861920881,61.905518 C0.78401306,62.2853695 0.808639095,62.6558695 0.744611404,62.9511117 L0.744611404,64.0991273 C0.759834771,64.1022445 0.773267154,64.1044711 0.788938267,64.1075883 C1.95531684,64.3413773 2.61171262,64.5573539 3.68137804,65.0797055 C4.27777584,65.3718305 4.55000546,65.5294711 5.15088072,65.936932 C5.33982957,66.065182 5.49027226,66.1537992 5.53325589,66.3769008 C5.58026923,66.6133617 5.42624457,66.742057 5.31206932,66.955807 C5.11461329,67.3245258 4.96148412,67.4794945 4.60910795,67.769393 C4.37269801,67.9666664 4.16807804,68.0548383 3.84793959,68.075768 C3.38362689,68.1064945 3.17990241,67.7863148 2.74961842,67.6104164 C2.10038658,67.3436742 1.74353294,67.1682211 1.07415253,66.9584789 C0.954156576,66.920182 0.846697514,66.8876742 0.744611404,66.8578383 L0.744611404,67.6478227 C0.77147617,67.6594008 0.796102205,67.6651898 0.823862463,67.6807758 C0.985498803,67.7725102 1.0719138,67.8486586 1.17623864,68.0022914 C1.31101021,68.1991195 1.27563827,68.3625492 1.35220285,68.587432 C1.56756873,69.2246742 1.69607186,69.5938383 2.05695521,70.1629477 C2.48589597,70.8367055 2.8087209,71.1831586 3.43735642,71.6792367 C3.94017528,72.078682 4.27150739,72.2447836 4.84909985,72.5257758 C5.24983261,72.721268 5.56818008,72.6736195 5.90578064,72.9626273 C6.06562599,73.1002289 6.16368239,73.1835023 6.25860456,73.3714242 C6.39292839,73.6386117 6.3862122,73.8367758 6.34681054,74.1324633 C6.30293142,74.451307 6.22860557,74.643682 6.02309011,74.8908305 C5.86414025,75.0832055 5.75086049,75.1963148 5.5148983,75.2818148 C5.09759894,75.435893 4.81999636,75.1856273 4.39777179,75.0431273 C3.85734225,74.8609945 3.58690361,74.6690648 3.09662164,74.3782758 C2.14695217,73.8122836 1.37145594,73.2378305 0.744611404,72.5912367 L0.744611404,73.3242211 C0.745506896,73.3246664 0.746850134,73.325557 0.747745627,73.3260023 C1.31459218,73.7441508 1.62846219,73.9360805 1.75069688,74.3484398 C1.8111426,74.5537289 0.975648389,76.2712992 0.813116556,77.5680492 C0.786699537,77.7795727 0.763864486,77.9799633 0.744611404,78.1736742 L0.744611404,80.2158773 C0.820280494,80.7912211 0.969379943,81.3817055 1.22907268,82.0812914 C1.36205327,82.4388773 2.80692992,81.4271273 3.16378355,81.0579633 C3.41452137,80.7992367 3.65048356,80.5636664 3.88152054,80.3191898 C4.78193794,78.7499086 5.81488818,76.3443305 7.00634054,72.792518 C7.02469813,72.7328461 7.04216023,72.6722836 7.06007007,72.6121664 C7.08738258,72.3049008 7.11245636,71.9838305 7.13797789,71.6284711 C7.17469307,71.1225961 6.97544606,70.190557 7.48542886,69.7652836 C7.60497707,69.664643 7.72407753,69.5996273 7.84407348,69.5528695 C7.91347413,69.2402602 7.9792928,68.9303227 8.04332049,68.6235023 C7.78944846,68.7771352 7.52706925,68.9467992 7.22439289,69.151643 C6.41755442,69.6980414 6.07502866,70.1584945 5.26639921,70.6986586 C4.79357934,71.0148305 4.58448191,71.5037836 4.01987409,71.4512367 C3.55869561,71.408932 3.27661557,71.0647055 3.03975789,70.7872758 C2.83379468,70.5463617 2.70753028,70.1593852 2.90632955,69.9474164 C3.93793655,68.8470492 4.28404428,68.4774398 5.30445763,67.6999242 C6.52008828,66.7723383 7.4634893,66.223268 8.62583816,65.7369867 C8.87702372,64.5092602 9.12507506,63.4307133 9.42416945,62.6059945 C8.83762207,62.374432 8.39390569,62.1816117 7.88168415,61.8008695 C7.67795968,61.6494633 7.784971,61.1605102 7.92869749,60.9534398" id="Fill-1" fill="#000000"></path>
                                <g id="Group-5" transform="translate(6.514178, 0.030727)">
                                    <mask id="mask-2" fill="white">
                                        <use xlink:href="#path-1"></use>
                                    </mask>
                                    <g id="Clip-4"></g>
                                    <path d="M45.4156476,20.1200648 C44.2385231,22.4192133 41.5171223,25.2291352 38.8261683,25.5974086 C38.8969122,24.0383695 39.6244996,19.8052289 39.7086758,17.7901898 C41.5945824,16.6305961 45.6704151,13.5739711 45.4599744,10.3227445 C45.2652049,6.61685391 43.131247,-7.66832578 43.6694378,6.67207266 C43.7786878,9.57996328 44.6974628,13.2177211 38.7939306,14.196518 C31.3680616,13.377143 38.0985809,1.69214297 34.8654063,6.28643203 C33.2378493,7.28126016 33.0430797,9.37645547 33.130838,11.0405883 C33.2606843,13.4991586 34.8949576,15.5377992 36.2207338,16.7962523 C36.5946017,20.265682 36.2722246,24.6956508 34.8689883,27.7642992 C31.8923723,34.2912445 26.1786843,42.908932 18.8499763,47.5250414 C17.1427204,48.6009164 15.3409901,49.3383539 11.7831997,49.6425023 C14.0268553,46.7167992 13.0709174,46.5333305 12.3710903,46.8837914 C10.5751807,46.8869086 8.28451167,51.0608227 6.47830392,49.079182 C8.35749428,47.7739711 10.167284,45.196057 10.1005698,41.9590805 C10.2210135,41.1080883 9.95147038,39.7316273 9.37880312,39.5704242 C7.09485029,42.3211195 5.23267429,46.5756352 2.93887104,49.7899008 C3.05707601,50.0263617 3.16543057,50.2503539 3.25229331,50.4396117 C3.40945219,50.7825023 3.9924176,51.5217211 3.59974428,51.7746586 C3.19453406,52.0356117 2.64917932,52.0080023 2.06307968,51.8766352 C1.80965539,51.8191898 1.51459071,51.7657523 1.42817572,51.651307 C1.05296449,52.0489711 0.664768627,52.4127914 0.259110665,52.7316352 L2.63485144,52.8006586 C3.85809377,52.8358383 4.75448146,52.9427133 5.70638965,53.2263773 C9.01030809,52.0948383 14.6998177,51.9919711 17.3061477,51.1654711 C22.1583722,49.627807 24.4239674,47.4056977 25.588555,46.6513383 C30.6288328,48.8355961 35.0942046,47.2685414 37.7829199,44.7013148 C39.5662926,43.0536586 41.320114,40.8382289 41.5041377,39.9939164 C41.4248866,38.4820805 38.9560146,41.4376195 37.4233798,42.7686586 C35.1228603,44.7467367 31.2570205,45.9611039 28.5186054,44.7013148 C27.8541502,44.3944945 27.8138531,43.1342602 28.1707067,42.6604477 C31.1173238,39.169643 37.0696604,31.4292211 38.0412694,28.8749086 C40.8463987,28.5012914 47.0709649,24.1951195 47.7506434,19.0023305 C48.1258547,15.9866742 46.6236665,17.7055805 45.4156476,20.1200648" id="Fill-3" fill="#000000" mask="url(#mask-2)"></path>
                                </g>
                                <path d="M18.0581022,57.1263352 C18.9173269,58.2801398 19.2813445,59.0594367 19.6632719,60.4443586 C19.6986439,60.5730539 19.7290906,60.6901711 19.7577463,60.8041711 C21.6521601,58.954343 23.0356955,56.1163664 23.3047909,53.4997102 C20.5117508,52.4069133 17.47648,53.0851242 14.9802955,54.4321945 C16.2133883,55.0957102 17.0927616,55.8282492 18.0581022,57.1263352" id="Fill-6" fill="#000000"></path>
                                <path d="M1.16531363,60.6355312 C1.38112725,60.0009609 1.65425237,59.7057188 1.91215412,59.087625 C2.10244621,58.631625 2.42885311,58.3880391 2.35363177,57.9004219 C2.30258872,57.5726719 2.14766857,57.3878672 1.95469,57.1487344 C1.66768475,56.7951562 1.56783737,56.7145547 1.24008723,56.5644844 C1.06994372,56.4861094 0.898009216,56.4019453 0.744880052,56.3747812 L0.744880052,62.9511563 C0.808459997,62.6559141 0.783833962,62.2854141 0.861741782,61.9055625 C0.964723384,61.4072578 1.00143856,61.1173594 1.16531363,60.6355312" id="Fill-8" fill="#C3043F"></path>
                                <path d="M9.82593202,56.2865648 C9.85957572,56.3913094 9.89853158,56.4982732 9.94766909,56.6087876 C9.94147156,56.5710618 9.93483136,56.5328922 9.92155095,56.4925034 C9.89454746,56.4112819 9.8622318,56.3464823 9.82593202,56.2865648" id="Fill-10" fill="#C3043F"></path>
                                <path d="M9.54743395,55.9749797 C9.30520331,55.7630109 9.11446348,55.6815187 8.796116,55.6280812 C8.4988126,55.5782062 8.29956558,55.5644016 8.02644047,55.6890891 C7.83435739,55.7768156 7.74749465,55.8716672 7.60376815,56.0244094 C7.29974855,56.3490422 7.33691148,56.6674406 7.12602307,57.058425 C6.82334671,57.6226359 6.64424827,57.9459328 6.22650117,58.4308781 C5.70442922,59.0373937 5.34533685,59.3464406 4.65267364,59.7490031 C4.06791724,60.0874406 3.69225827,60.2014406 3.04392192,60.3933703 C2.81333269,60.4610578 2.65169635,60.421425 2.44797187,60.5478937 C2.2899175,60.6458625 2.21066644,60.7286906 2.11305779,60.8867766 C1.95455568,61.1406047 2.00156902,61.3423312 1.9684358,61.6402453 C1.92724316,62.02455 1.90396037,62.2498781 1.9635106,62.6324016 C1.98500241,62.7717844 1.93798907,62.8862297 2.03917969,62.9850891 C2.13813157,63.0821672 2.24962035,63.0465422 2.38931713,63.0558937 C2.56304262,63.0674719 2.66602422,63.057675 2.83392901,63.0126984 C4.10328918,62.8519406 4.7834155,62.6279484 5.9354662,61.9546359 C7.09512859,61.2773156 8.01256034,60.2669016 8.9282011,58.8628312 C9.23938464,58.3872375 9.44131813,58.1240578 9.64325161,57.5950266 C9.78608262,57.2200734 10.0099557,56.9662453 9.9490622,56.6099953 C9.89936238,56.4991125 9.85996072,56.3917922 9.82593202,56.2866984 C9.75697912,56.1726984 9.66966863,56.0827453 9.54743395,55.9749797" id="Fill-12" fill="#C3043F"></path>
                                <path d="M4.65410643,59.1782906 C4.87439751,59.3675484 5.26080239,59.1016969 5.49721233,58.8883922 C5.76809871,58.6434703 6.1370415,58.3375406 6.10972898,57.8775328 C6.08375971,57.4188609 5.67541527,57.3030797 5.38617129,56.9450484 C5.06110763,56.5407047 4.85021922,56.3349703 4.53187175,55.9266187 C4.02994837,55.2867047 3.6484687,54.7541109 3.30818167,54.2126109 C3.10266621,54.2295328 2.89446428,54.2375484 2.68133714,54.23265 C1.9864352,54.2157281 1.34391955,54.0963844 0.744835277,53.8910953 L0.744835277,54.7572281 C1.11959876,55.351275 1.5561512,55.9408687 2.11090861,56.6257594 C2.99341616,57.7181109 3.5105629,58.1928141 4.65410643,59.1782906" id="Fill-14" fill="#C3043F"></path>
                                <path d="M8.57716816,51.9071391 C9.16371555,52.0389516 9.70862254,52.0665609 10.1142805,51.8056078 C10.5069538,51.552225 9.92354067,50.8134516 9.76638179,50.4705609 C9.67951905,50.2813031 9.57116449,50.0568656 9.45295952,49.82085 C8.97118473,50.4959437 8.47015685,51.1224984 7.9422642,51.6822563 C8.0286792,51.7962562 8.32419162,51.8496938 8.57716816,51.9071391" id="Fill-16" fill="#C3043F"></path>
                                <path d="M6.77346779,52.7625398 C5.93349612,53.4238289 5.02143733,53.8945242 4.01445636,54.1056023 C4.05923097,54.3656648 4.17071975,54.6012352 4.41742784,54.7847039 C4.87726308,55.1258133 5.37067928,54.9067195 5.87976659,54.925868 C7.36404489,54.9797508 8.38042853,54.967282 9.7362037,55.3030477 C9.90455624,54.3643289 10.8595987,53.7230789 12.2207468,53.2568367 C11.2683908,52.973618 10.3720032,52.8662977 9.14920857,52.831118 L6.77346779,52.7625398 Z" id="Fill-18" fill="#C3043F"></path>
                                <path d="M13.4546902,56.8751789 C14.405703,57.4180148 15.1028436,57.848632 15.7771492,58.4493586 C16.1599721,58.7900227 17.5170906,60.2769211 17.0411365,60.4105148 C15.230899,60.919507 14.0148206,61.1065383 12.0953331,60.8509289 C10.8743295,60.6892805 9.25930934,59.9340305 9.05648036,60.0030539 C8.49052929,60.1945383 8.32889295,60.3766711 7.92860794,60.9533508 C7.78488145,61.1604211 7.67831788,61.6498195 7.8815946,61.8007805 C8.39381614,62.181968 8.83753252,62.374343 9.4240799,62.6063508 C10.0160002,60.9733898 10.8125405,60.3392648 12.2565217,61.553632 C14.8319572,63.719632 17.6200722,62.8904602 19.757612,60.8041711 C19.729404,60.6901711 19.6985095,60.5730539 19.6631376,60.4443586 C19.2816579,59.0594367 18.9171926,58.2801398 18.0579678,57.1263352 C17.0926273,55.8282492 16.2132539,55.0957102 14.9801612,54.4321945 C14.000045,54.9616711 13.1027618,55.5935695 12.3366682,56.2628742 C12.6805372,56.4387727 13.0364954,56.6369367 13.4546902,56.8751789" id="Fill-20" fill="#C3043F"></path>
                                <path d="M2.74943932,67.6102828 C3.17972331,67.7861812 3.38344779,68.1068062 3.84776049,68.0756344 C4.16789895,68.0547047 4.37251891,67.9665328 4.60892885,67.7692594 C4.96130503,67.4793609 5.11443419,67.3243922 5.31233796,66.9556734 C5.42651322,66.7419234 5.58009013,66.6132281 5.53352453,66.3767672 C5.49009316,66.1536656 5.33965048,66.0654938 5.15070162,65.9367984 C4.54982636,65.5293375 4.27759674,65.3716969 3.68119894,65.0795719 C2.61153352,64.5572203 1.95558549,64.3412437 0.788759169,64.1074547 C0.773088056,64.1043375 0.760103419,64.1021109 0.744432305,64.0989937 L0.744432305,66.8577047 C0.846518415,66.8875406 0.953977478,66.9204937 1.07442118,66.9583453 C1.74335384,67.1680875 2.10065523,67.3435406 2.74943932,67.6102828" id="Fill-22" fill="#C3043F"></path>
                                <path d="M3.09662164,74.3782758 C3.58690361,74.6690648 3.85734225,74.8609945 4.39777179,75.0431273 C4.81999636,75.1856273 5.09759894,75.435893 5.5148983,75.2818148 C5.75086049,75.1963148 5.86414025,75.0832055 6.02309011,74.8908305 C6.22860557,74.643682 6.30293142,74.451307 6.34681054,74.1324633 C6.3862122,73.8367758 6.39292839,73.6386117 6.25860456,73.3714242 C6.16368239,73.1835023 6.06562599,73.1002289 5.90578064,72.9626273 C5.56818008,72.6736195 5.24983261,72.721268 4.84909985,72.5257758 C4.27150739,72.2447836 3.94017528,72.078682 3.43735642,71.6792367 C2.8087209,71.1831586 2.48589597,70.8367055 2.05695521,70.1629477 C1.69607186,69.5938383 1.56756873,69.2246742 1.35220285,68.587432 C1.27563827,68.3625492 1.31101021,68.1991195 1.17623864,68.0022914 C1.0719138,67.8486586 0.985498803,67.7725102 0.823862463,67.6807758 C0.796102205,67.6651898 0.77147617,67.6594008 0.744611404,67.6478227 L0.744611404,72.5912367 C1.37145594,73.2378305 2.14695217,73.8122836 3.09662164,74.3782758" id="Fill-24" fill="#C3043F"></path>
                                <path d="M2.9064191,69.94755 C2.70761983,70.1595188 2.83388423,70.5464953 3.03984743,70.7874094 C3.27670512,71.0648391 3.55878516,71.4090656 4.01951589,71.4513703 C4.58457146,71.5039172 4.79366889,71.0149641 5.26648876,70.6987922 C6.07511821,70.1586281 6.41764397,69.698175 7.22448244,69.1517766 C7.52671105,68.9464875 7.78953801,68.7772688 8.04341004,68.6231906 C8.2547462,67.6101047 8.44145632,66.6348703 8.62547997,65.736675 C7.46357885,66.2234016 6.51973008,66.7724719 5.30409944,67.7000578 C4.28413383,68.4775734 3.9380261,68.8471828 2.9064191,69.94755" id="Fill-26" fill="#C3043F"></path>
                                <path d="M0.813295655,77.5680937 C0.975379741,76.2713437 1.8113217,74.5537734 1.75087598,74.3484844 C1.62819355,73.936125 1.31432353,73.7441953 0.747924725,73.3260469 C0.747029233,73.3256016 0.745685995,73.3247109 0.744790502,73.3242656 L0.744790502,78.1737187 C0.764043584,77.9800078 0.786430889,77.7796172 0.813295655,77.5680937" id="Fill-28" fill="#C3043F"></path>
                                <path d="M3.88152054,80.3193234 C3.65048356,80.5633547 3.41452137,80.7993703 3.16378355,81.0580969 C2.80692992,81.4272609 1.36205327,82.4390109 1.22907268,82.081425 C0.969379943,81.3813938 0.820280494,80.7913547 0.744611404,80.2160109 L0.744611404,82.8041672 C1.56801647,83.1007453 2.58798208,82.5734953 3.88152054,80.3193234" id="Fill-30" fill="#C3043F"></path>
                                <path d="M7.13815699,71.6285602 C7.11218772,71.9839195 7.08756168,72.3049898 7.05980142,72.6122555 C7.36516426,71.5960523 7.61993179,70.5633727 7.84380483,69.5525133 C7.72425663,69.5997164 7.60515617,69.664732 7.48516021,69.7653727 C6.97562516,70.1906461 7.17487217,71.1226852 7.13815699,71.6285602" id="Fill-32" fill="#C3043F"></path>
                            </g>
                            <path d="M51.659789,82.1749057 C51.6017979,82.1127691 51.5433641,82.0470818 51.4844877,81.9774 C51.5433641,82.0470818 51.6017979,82.1127691 51.659789,82.1749057" id="Fill-34" fill="#000000"></path>
                            <path d="M51.8395607,82.3565974 C51.7842257,82.3033374 51.728448,82.2469706 51.6722276,82.1870531 C51.728448,82.2469706 51.7842257,82.3037812 51.8395607,82.3565974" id="Fill-36" fill="#000000"></path>
                            <path d="M52.0145914,82.5134361 C51.9623551,82.4690528 51.9092335,82.4215627 51.8556692,82.3705219 C51.9092335,82.4211188 51.9623551,82.4690528 52.0145914,82.5134361" id="Fill-38" fill="#000000"></path>
                            <path d="M51.0893564,81.4705708 C51.0247251,81.379585 50.9600938,81.2846047 50.8941344,81.1842984 C50.9600938,81.2846047 51.0247251,81.379585 51.0893564,81.4705708" id="Fill-40" fill="#000000"></path>
                            <path d="M51.474734,81.9676027 C51.4140868,81.8961456 51.3534396,81.8202501 51.2914643,81.7403602 C51.3534396,81.8202501 51.4140868,81.8961456 51.474734,81.9676027" id="Fill-42" fill="#000000"></path>
                            <path d="M51.2849082,81.7335379 C51.2224903,81.6523164 51.1596297,81.5671005 51.0954411,81.4770023 C51.1596297,81.5671005 51.2224903,81.6523164 51.2849082,81.7335379" id="Fill-44" fill="#000000"></path>
                            <path d="M52.1847864,82.646179 C52.1352062,82.6097847 52.0847407,82.5711713 52.0342751,82.5285633 C52.0847407,82.5711713 52.1352062,82.6097847 52.1847864,82.646179" id="Fill-46" fill="#000000"></path>
                            <path d="M52.6682481,82.9142505 C52.6270788,82.8982725 52.5854669,82.8814069 52.5438549,82.8614344 C52.5854669,82.8814069 52.6270788,82.8982725 52.6682481,82.9142505" id="Fill-48" fill="#000000"></path>
                            <path d="M53.1101741,83.0068082 C53.0783012,83.0059205 53.0455428,83.004589 53.0132272,83.0005945 C53.0455428,83.004589 53.0783012,83.0059205 53.1101741,83.0068082" id="Fill-50" fill="#000000"></path>
                            <path d="M52.9671075,82.9935395 C52.9321358,82.9882135 52.897164,82.9828875 52.8613069,82.9744547 C52.897164,82.9824437 52.9321358,82.9882135 52.9671075,82.9935395" id="Fill-52" fill="#000000"></path>
                            <path d="M53.2475747,83.0038008 C53.2188005,83.0060199 53.1900262,83.0091268 53.161252,83.0091268 C53.1900262,83.0086829 53.2188005,83.0060199 53.2475747,83.0038008" id="Fill-54" fill="#000000"></path>
                            <path d="M53.4924451,82.959893 C53.4765086,82.9643313 53.4610148,82.9701011 53.4450783,82.9740956 C53.4610148,82.9701011 53.4765086,82.9643313 53.4924451,82.959893" id="Fill-56" fill="#000000"></path>
                            <path d="M52.3510412,82.7569176 C52.3041171,82.7280685 52.2567503,82.6970001 52.2089409,82.662825 C52.2567503,82.6970001 52.3041171,82.7285123 52.3510412,82.7569176" id="Fill-58" fill="#000000"></path>
                            <path d="M52.819598,82.9630269 C52.7815275,82.9528187 52.7430143,82.9417229 52.7040585,82.9279641 C52.7430143,82.9417229 52.7815275,82.9528187 52.819598,82.9630269" id="Fill-60" fill="#000000"></path>
                            <path d="M52.511167,82.8454737 C52.4673416,82.8237259 52.4230736,82.7997589 52.3779202,82.7731289 C52.4230736,82.7997589 52.4673416,82.8237259 52.511167,82.8454737" id="Fill-62" fill="#000000"></path>
                            <path d="M47.6297921,73.8496898 C47.5270903,73.5499945 47.4221751,73.2418383 47.3163745,72.9225492 C47.4221751,73.2418383 47.5266476,73.5486586 47.6297921,73.8496898" id="Fill-64" fill="#000000"></path>
                            <path d="M53.3780208,82.9866117 C53.3536733,82.99105 53.3297686,82.9968199 53.3049785,82.9999267 C53.3297686,82.9968199 53.3536733,82.99105 53.3780208,82.9866117" id="Fill-66" fill="#000000"></path>
                            <path d="M37.9718687,53.9171461 C35.7797039,53.0318648 33.3171003,52.7303883 31.0188196,53.6299195 C31.2404539,55.7928023 32.2263908,58.1053102 33.6309703,59.8874508 C33.9076774,58.7902008 34.3393047,57.9841852 35.0651011,56.8855992 C35.9699959,55.5135914 36.7732524,54.7525523 37.9718687,53.9171461" id="Fill-68" fill="#000000"></path>
                            <path d="M52.2022247,70.7098805 C52.0701396,70.8946852 51.9774561,71.0420836 51.7522398,71.0817164 C51.5126957,71.1235758 51.3864313,70.968607 51.1741996,70.8519352 C50.8057046,70.649318 50.6530232,70.4939039 50.3664657,70.1389898 C50.1734871,69.9003023 50.0884153,69.6959039 50.0722965,69.3779508 C50.0490137,68.9157164 50.3745251,68.7188883 50.5603397,68.2945055 C50.8388378,67.6545914 51.0224137,67.3036852 51.2453913,66.6419508 C51.4115051,66.1494352 51.4907561,65.8653258 51.6076178,65.3581148 C51.7195544,64.8718336 51.6277664,64.4162789 51.8382071,64.0992164 C51.9738742,63.894818 52.2008814,63.8961539 52.453858,63.8302477 C52.7551911,63.7505367 52.9392147,63.7616695 53.2503983,63.772357 C53.3780059,63.7777008 53.478301,63.7803727 53.5781484,63.7910602 L53.5781484,63.5163023 C53.0018992,63.4820133 52.5640035,63.4210055 51.9076077,63.2905289 C50.7842128,63.0674273 50.1582637,62.8608023 49.1105379,62.4030211 C48.4433962,62.112232 48.0552003,61.9519195 47.4543251,61.5440133 C47.2662717,61.4166539 47.1162768,61.3267008 47.0723977,61.1040445 C47.0253843,60.8675836 47.179409,60.7393336 47.2935842,60.5264742 C47.491488,60.1568648 47.6446172,60.0027867 47.9960978,59.7115523 C48.2342988,59.5151695 48.438471,59.4278883 48.7581617,59.4056227 C49.2229221,59.3744508 49.4266466,59.6950758 49.8569306,59.8723102 C50.505267,60.1372711 50.8630161,60.3140602 51.5310533,60.523357 C52.0298424,60.6805523 52.3181909,60.7535836 52.8290692,60.8609039 C53.0945826,60.916568 53.3489024,60.9138961 53.5781484,60.9312633 L53.5781484,59.8313414 C53.5548656,59.8331227 53.5320306,59.8340133 53.5074045,59.8384664 C53.1254771,59.910607 52.8989176,59.8954664 52.5098262,59.8669664 C52.2093886,59.8455914 52.0074551,59.8990289 51.7464191,59.7511852 C51.5843351,59.6594508 51.4988155,59.5833023 51.394043,59.4292242 C51.2592714,59.2328414 51.2946433,59.0689664 51.2180787,58.8440836 C51.0022651,58.2063961 50.8746575,57.837232 50.5137741,57.2681227 C50.0848334,56.5943648 49.7606652,56.248357 49.1333729,55.7527242 C48.6296586,55.3541695 48.299222,55.1871773 47.7211817,54.9057398 C47.3208967,54.710693 47.0021015,54.7587867 46.664501,54.468443 C46.5042079,54.3308414 46.407047,54.2471227 46.3121248,54.0596461 C46.1773532,53.7933492 46.1845171,53.5947398 46.2239188,53.2981617 C46.2673502,52.9806539 46.341676,52.7882789 46.5471915,52.5402398 C46.6456956,52.4217867 46.7285287,52.3353961 46.8315103,52.2650367 C46.5964436,52.0410445 46.3663021,51.8063648 46.1415335,51.5556539 C46.1222804,51.6135445 46.1034751,51.6665367 46.084222,51.7270992 C45.5487177,53.378318 45.5554339,54.4546383 45.4631982,56.1330211 C45.4363334,56.6384508 45.6284165,57.211568 45.2209676,57.659107 C44.7902358,58.1320289 44.2224938,58.0162477 43.6126636,57.9285211 C43.5880375,57.9592477 43.5656502,57.9895289 43.539681,58.0207008 C43.5105775,57.9824039 43.4787875,57.944107 43.447893,57.9062555 C43.4322219,57.9044742 43.4165508,57.9018023 43.4008797,57.9000211 C43.280436,57.8862164 43.2262587,57.7686539 43.2029759,57.610568 C42.4628516,56.7515602 41.4769147,55.8894352 40.3347144,55.1506617 C40.1242738,55.2980602 39.9053259,55.4703961 39.6183207,55.7135367 C38.522686,56.6420133 37.9168855,57.2494195 37.2184016,58.5003023 C36.7549844,59.3285836 36.5526032,59.8429195 36.3247004,60.7633805 C37.2184016,60.9962789 37.7579356,61.051943 38.6811881,61.0051852 C40.2290463,60.9263648 41.042601,60.4098023 42.4628516,59.7939352 C44.111005,59.0792086 45.0105269,58.5630914 46.4477919,57.4903336 C46.863748,57.1799508 47.0746364,56.9746617 47.4865628,56.6589352 C47.8528191,56.377943 47.976397,55.9749352 48.438471,55.9566773 C48.9014405,55.9384195 49.2032213,56.3093648 49.445452,56.5827867 C49.6558926,56.8205836 49.9169286,57.210232 49.7217113,57.425318 C48.7102529,58.5448336 48.2199709,58.9108805 47.1386641,59.7133336 C46.0707896,60.5046539 45.2339522,61.0750992 44.2901034,61.5515836 C44.9335146,62.3553727 45.3333518,64.0631461 45.7582629,66.1672477 C46.0394474,65.9267789 46.3327211,65.7094664 46.6452479,65.519318 C47.7861049,64.8259664 48.5508553,64.4100445 49.9608077,64.3120758 C50.1833375,64.2978258 50.3866142,64.2466148 50.5231768,64.4211773 C50.6100395,64.5325055 50.5813838,64.6349273 50.6060098,64.7725289 C50.6713808,65.1541617 50.6525754,65.3803805 50.6172035,65.7651305 C50.589891,66.0625992 50.6400385,66.2638805 50.4864616,66.5212711 C50.3915395,66.680693 50.3136316,66.764857 50.1582637,66.8654977 C49.956778,66.9955289 49.7929029,66.9581227 49.5645524,67.0307086 C48.919798,67.2333258 48.5454823,67.3540055 47.9674421,67.7026852 C47.2819428,68.1168258 46.9277757,68.432107 46.4164496,69.0475289 C46.3936146,69.074693 46.3783912,69.0969586 46.3573471,69.123232 C46.5924138,70.2253805 46.860166,71.3627086 47.1870207,72.4844508 C47.5989471,72.4483805 48.0068438,72.4670836 48.2257916,72.735607 C48.6856268,73.2971461 48.6260766,73.8773883 48.5208563,74.559607 C48.5042897,74.667818 48.2750437,74.7283805 47.9566962,74.7608883 C47.8577443,74.4874664 47.7578969,74.2055836 47.6571541,73.9165758 C48.9050224,77.4991148 49.9728969,79.7947008 50.8925673,81.1822945 C51.1034557,81.2539898 51.3237468,81.3247945 51.5700072,81.3973805 C51.9196969,80.6577164 51.8288044,78.9575133 51.5700072,77.8976695 C51.2337499,76.5247711 50.8670458,76.055857 50.2943786,74.9354508 C49.8631991,74.0920289 49.6214162,73.6097555 49.0823299,72.8309039 C48.5208563,72.0199898 48.034604,71.6886773 47.4677575,70.8817711 C47.1431415,70.4186461 46.6470389,70.2200367 46.689127,69.6562711 C46.7240512,69.1984898 47.064786,68.9125992 47.3397021,68.6725758 C47.5787985,68.4628336 47.9660989,68.3310211 48.182808,68.5251773 C49.3093371,69.5302477 49.5260463,69.743107 50.270648,70.6257164 C51.7777614,72.4154273 52.6114646,73.5603258 53.3189034,75.785107 C53.4250192,76.119982 53.5078523,76.4236852 53.5781484,76.7153648 L53.5781484,82.9341539 L53.5781484,68.2228102 C53.4465111,68.5452164 53.2897999,68.8769742 53.0896574,69.2635055 C52.7865333,69.8504273 52.6222105,70.1198414 52.2022247,70.7098805" id="Fill-70" fill="#000000"></path>
                            <g id="Group-74" transform="translate(0.000000, 0.476039)">
                                <mask id="mask-4" fill="white">
                                    <use xlink:href="#path-3"></use>
                                </mask>
                                <g id="Clip-73"></g>
                                <path d="M42.2761863,51.4650328 C42.5327448,51.8716031 42.4664784,52.3663453 42.3823021,52.9345641 C42.3787201,52.9586109 42.3764814,52.9835484 42.3737949,53.0080406 C42.7396035,53.1456422 43.0718311,53.2979391 43.3619705,53.4676031 L43.4130136,52.3734703 C43.486444,50.8095328 43.6498713,49.7759625 44.1965693,48.4881188 C42.2009649,45.4297125 40.4869929,41.7322828 38.4300473,39.2554547 C37.8578278,39.4157672 37.5882847,40.7922281 37.7087284,41.6436656 C37.6415664,44.8801969 39.4504607,47.4590016 41.3309943,48.7637672 C39.5243388,50.7449625 37.2341175,46.5719391 35.4386557,46.5674859 C34.737933,46.2179156 33.7819951,46.4018297 36.0256508,49.3270875 C32.4687558,49.0233844 30.6656823,48.2859469 28.9588742,47.2096266 C21.6306138,42.5930719 15.9169259,33.9758297 12.9398621,27.4488844 C11.5375214,24.3802359 11.2138009,19.9502672 11.5881167,16.4808375 C12.9143406,15.2228297 14.5486139,13.1837437 14.6784602,10.7251734 C14.7666662,9.06148594 14.5714489,6.9654 12.9438919,5.97057188 C9.7107173,1.37672812 16.4407889,13.0617281 9.01491987,13.8819937 C3.11049212,12.9027516 4.02971485,9.26410313 4.1389649,6.3562125 C4.67760345,-7.98374062 2.5449888,6.30188437 2.34842827,10.007775 C2.13843535,13.2581109 6.21471579,16.3147359 8.10062235,17.474775 C8.18479861,19.4889234 8.91149052,23.7229547 8.98357764,25.2819938 C6.29172812,24.9137203 3.56987961,22.1037984 2.39365062,19.80465 C1.18563166,17.3906109 -0.317004235,15.6712594 0.0586547384,18.6873609 C0.73833331,23.8797047 6.96289952,28.1863219 9.7680288,28.5594938 C10.7396378,31.1133609 16.6919744,38.8551187 19.6381437,42.3454781 C19.9949974,42.8188453 19.9551479,44.079525 19.290245,44.3859 C16.5513821,45.6461344 12.6855424,44.4322125 10.3850229,42.4545797 C8.85283578,41.1222047 6.38396382,38.1666656 6.30426501,39.6789469 C6.4887364,40.5228141 8.24255786,42.7382437 10.0263783,44.3859 C12.7150936,46.9531266 17.1795699,48.5201813 22.2202954,46.3354781 C23.3857785,47.0907281 25.650926,49.3128375 30.5031504,50.8513922 C32.5672599,51.5051109 36.5660803,51.7055016 39.7817928,52.3227047 C40.2572991,52.0733297 40.7010155,51.8684859 41.047571,51.7188609 C41.3959174,51.5683453 42.0285827,51.0700406 42.2761863,51.4650328" id="Fill-72" fill="#000000" mask="url(#mask-4)"></path>
                            </g>
                            <path d="M52.6871337,55.9171336 C53.1286113,56.6069227 53.3923338,57.1257117 53.5781484,57.7148602 L53.5781484,54.0214383 C52.9790641,54.2267273 52.3361007,54.3465164 51.6420943,54.3621023 C51.5301578,54.3647742 51.422251,54.3572039 51.3125532,54.3536414 C51.8619376,54.8305711 52.3181909,55.3408992 52.6871337,55.9171336" id="Fill-75" fill="#000000"></path>
                            <path d="M51.5310533,60.523357 C50.8630161,60.3140602 50.505267,60.1372711 49.8569306,59.8723102 C49.4266466,59.6950758 49.2229221,59.3744508 48.7581617,59.4056227 C48.438471,59.4278883 48.2342988,59.5151695 47.9960978,59.7115523 C47.6446172,60.0027867 47.491488,60.1568648 47.2935842,60.5264742 C47.179409,60.7393336 47.0253843,60.8675836 47.0723977,61.1040445 C47.1162768,61.3267008 47.2662717,61.4166539 47.4547728,61.5440133 C48.0552003,61.9519195 48.4433962,62.112232 49.1105379,62.4030211 C50.1582637,62.8608023 50.7842128,63.0674273 51.9076077,63.2905289 C52.5640035,63.4210055 53.0018992,63.4820133 53.5781484,63.5163023 L53.5781484,60.9312633 C53.3489024,60.9138961 53.0945826,60.916568 52.8290692,60.8609039 C52.3181909,60.7535836 52.0298424,60.6805523 51.5310533,60.523357" id="Fill-77" fill="#C3043F"></path>
                            <path d="M46.5472363,52.5403289 C46.3417208,52.788368 46.267395,52.9802977 46.2239636,53.2982508 C46.1841142,53.5948289 46.177398,53.792993 46.3121696,54.0597352 C46.4070917,54.2472117 46.5042526,54.3309305 46.6645457,54.468532 C47.0021463,54.7584305 47.3209415,54.710782 47.7212265,54.9058289 C48.2992667,55.1868211 48.6297033,55.3538133 49.1334177,55.752368 C49.76071,56.2484461 50.0844304,56.5944539 50.5133712,57.2682117 C50.8747023,57.8373211 51.0023099,58.2064852 51.2181235,58.8437273 C51.2946881,59.0690555 51.2588684,59.2324852 51.3940877,59.4293133 C51.4988603,59.5829461 51.5843798,59.6590945 51.7464639,59.7508289 C52.0074999,59.8986727 52.2094334,59.8452352 52.5094233,59.8670555 C52.8989624,59.8955555 53.1250741,59.9102508 53.5074493,59.8385555 C53.5320753,59.8341023 53.5549104,59.8327664 53.5781932,59.8314305 L53.5781932,57.7148602 C53.3923786,57.1257117 53.1286561,56.6069227 52.6871785,55.9171336 C52.3182357,55.3408992 51.8619824,54.8305711 51.3125979,54.3536414 C49.582507,54.2984227 48.1237503,53.4986414 46.831555,52.2651258 C46.7285734,52.3354852 46.6457404,52.4218758 46.5472363,52.5403289" id="Fill-79" fill="#C3043F"></path>
                            <path d="M49.7217113,57.4254961 C49.9169286,57.2099648 49.6563404,56.8203164 49.445452,56.5829648 C49.2032213,56.3090977 48.9014405,55.9381523 48.438471,55.9564102 C47.976397,55.974668 47.8528191,56.3781211 47.4865628,56.6591133 C47.0746364,56.9748398 46.863748,57.1796836 46.4477919,57.4905117 C45.0109746,58.5628242 44.111005,59.0793867 42.4628516,59.7941133 C41.042601,60.4095352 40.2290463,60.926543 38.6811881,61.004918 C37.7579356,61.0516758 37.2184016,60.9960117 36.3247004,60.7631133 C36.5526032,59.8426523 36.7549844,59.3287617 37.2184016,58.5000352 C37.9168855,57.2495977 38.522686,56.6417461 39.6183207,55.7132695 C39.9053259,55.4705742 40.1242738,55.2982383 40.3347144,55.1503945 C39.6026496,54.676582 38.8070047,54.2548711 37.9719583,53.9173242 C36.773342,54.7527305 35.9700855,55.5137695 35.0651906,56.885332 C34.3393942,57.983918 33.907767,58.7903789 33.6306121,59.8876289 C35.8424779,62.6930977 39.0953532,64.1822227 42.0657008,61.6840195 C43.0717863,60.8383711 43.7622108,60.8922539 44.2901034,61.5513164 C45.2343999,61.0752773 46.0707896,60.504832 47.1386641,59.7130664 C48.2199709,58.9110586 48.7102529,58.5445664 49.7217113,57.4254961" id="Fill-81" fill="#C3043F"></path>
                            <path d="M42.3824364,53.4105141 C42.4661649,52.8422953 42.5328791,52.3475531 42.2763206,51.9409828 C42.028717,51.5459906 41.3960518,52.0442953 41.0477053,52.1948109 C40.7011498,52.3444359 40.2574334,52.5492797 39.7814793,52.7986547 C40.7392082,52.9825687 41.6270887,53.2034437 42.3734815,53.4844359 C42.376168,53.4594984 42.3784067,53.4345609 42.3824364,53.4105141" id="Fill-83" fill="#C3043F"></path>
                            <path d="M43.361881,53.9434641 C44.7678037,54.7646203 45.1725662,55.9901203 43.6130666,57.9285656 C44.222449,58.0162922 44.790191,58.1320734 45.2209228,57.6591516 C45.6283717,57.2116125 45.4362887,56.6384953 45.4631534,56.1330656 C45.5553891,54.4542375 45.5486729,53.3779172 46.0841772,51.7266984 C46.1034303,51.6665812 46.1222357,51.6135891 46.1414887,51.5556984 C45.4546462,50.7888703 44.8121306,49.9075969 44.1964797,48.964425 C43.6502295,50.2518234 43.4863544,51.2853937 43.412924,52.8493312 L43.361881,53.9434641 Z" id="Fill-85" fill="#C3043F"></path>
                            <path d="M43.3985561,57.8990164 C43.4140499,57.9007917 43.4295437,57.9034547 43.4450375,57.9052301 C43.3680112,57.807143 43.2870007,57.7090559 43.2033341,57.6109687 C43.2259108,57.7680857 43.2794751,57.8852576 43.3985561,57.8990164" id="Fill-87" fill="#C3043F"></path>
                            <path d="M53.2503087,63.7723125 C52.9391252,63.761625 52.7555493,63.7504922 52.4542162,63.8302031 C52.2007919,63.8961094 51.9737846,63.8947734 51.8381175,64.0991719 C51.6276769,64.4162344 51.7194648,64.8717891 51.6075283,65.3580703 C51.4906666,65.8652812 51.4118633,66.1493906 51.2453017,66.6419062 C51.0223242,67.3036406 50.8387483,67.6545469 50.5602502,68.2944609 C50.3744356,68.7188438 50.0493719,68.9156719 50.0722069,69.3779062 C50.0883258,69.6958594 50.1733976,69.9002578 50.3668239,70.1389453 C50.6529336,70.4938594 50.805615,70.6492734 51.1741101,70.8518906 C51.3863417,70.9685625 51.5126061,71.1235312 51.7521503,71.0816719 C51.9773666,71.0420391 52.07005,70.8946406 52.2021351,70.7098359 C52.6225687,70.1197969 52.7864438,69.8503828 53.0900156,69.2634609 C53.2897104,68.8769297 53.4464215,68.5451719 53.5780589,68.2227656 L53.5780589,63.7910156 C53.4782115,63.7803281 53.3779164,63.7776562 53.2503087,63.7723125" id="Fill-89" fill="#C3043F"></path>
                            <path d="M47.9674421,67.7026852 C48.5454823,67.3540055 48.919798,67.2333258 49.5645524,67.0307086 C49.7929029,66.9581227 49.956778,66.9955289 50.1582637,66.8654977 C50.3136316,66.764857 50.3915395,66.680693 50.4864616,66.5212711 C50.6400385,66.2638805 50.589891,66.0625992 50.6172035,65.7651305 C50.6525754,65.3803805 50.6713808,65.1541617 50.6060098,64.7725289 C50.5813838,64.6349273 50.6100395,64.5325055 50.5231768,64.4211773 C50.3866142,64.2466148 50.1833375,64.2978258 49.9608077,64.3120758 C48.5508553,64.4100445 47.7861049,64.8259664 46.6452479,65.519318 C46.3327211,65.7094664 46.0394474,65.9267789 45.7582629,66.1672477 C45.9454207,67.0917164 46.1375038,68.0909977 46.3573471,69.123232 C46.3783912,69.0969586 46.3936146,69.074693 46.4164496,69.0475289 C46.9277757,68.432107 47.2819428,68.1168258 47.9674421,67.7026852" id="Fill-91" fill="#C3043F"></path>
                            <path d="M52.7038027,82.9278751 C52.6927357,82.9238807 52.6807834,82.9185547 52.6697164,82.9145602 C52.6807834,82.9185547 52.6927357,82.9238807 52.7038027,82.9278751" id="Fill-93" fill="#C3043F"></path>
                            <path d="M52.8607167,82.974195 C52.8478789,82.9710882 52.8341558,82.9666499 52.8208754,82.9630992 C52.8341558,82.9666499 52.8478789,82.9710882 52.8607167,82.974195" id="Fill-95" fill="#C3043F"></path>
                            <path d="M53.5773202,82.934243 C53.549874,82.9440073 53.5210998,82.9519963 53.493211,82.9599853 C53.5210998,82.9519963 53.549874,82.9444511 53.5773202,82.934243" id="Fill-97" fill="#C3043F"></path>
                            <path d="M53.4441545,82.974232 C53.4224632,82.979558 53.4003291,82.9826649 53.3790805,82.9866594 C53.4003291,82.9826649 53.4224632,82.979558 53.4441545,82.974232" id="Fill-99" fill="#C3043F"></path>
                            <path d="M53.3043402,82.999882 C53.2857477,83.0021012 53.2671551,83.002545 53.2485625,83.0038765 C53.2671551,83.002545 53.2857477,83.0021012 53.3043402,82.999882" id="Fill-101" fill="#C3043F"></path>
                            <path d="M53.0128051,83.000749 C52.9981966,82.9989737 52.9831455,82.9958668 52.9680944,82.9936477 C52.9831455,82.9958668 52.9981966,82.9989737 53.0128051,83.000749" id="Fill-103" fill="#C3043F"></path>
                            <path d="M53.1605554,83.0090035 C53.1441762,83.0090035 53.1277971,83.0072282 53.1114179,83.0067844 C53.1277971,83.007672 53.1441762,83.0090035 53.1605554,83.0090035" id="Fill-105" fill="#C3043F"></path>
                            <path d="M51.6721559,82.186838 C51.6686144,82.1832873 51.665073,82.1792929 51.6619742,82.1757422 C51.665073,82.1792929 51.6686144,82.1832873 51.6721559,82.186838" id="Fill-107" fill="#C3043F"></path>
                            <path d="M51.2913689,81.7402519 C51.2900409,81.7384765 51.2887128,81.7362574 51.2869421,81.734482 C51.2887128,81.7362574 51.2900409,81.7384765 51.2913689,81.7402519" id="Fill-109" fill="#C3043F"></path>
                            <path d="M51.855333,82.3703439 C51.8504636,82.3659056 51.8460368,82.3614672 51.84161,82.3570289 C51.8460368,82.3614672 51.8504636,82.3659056 51.855333,82.3703439" id="Fill-111" fill="#C3043F"></path>
                            <path d="M51.4841777,81.9772368 C51.4815216,81.97413 51.4793082,81.971467 51.4766521,81.9683602 C51.4793082,81.971467 51.4815216,81.97413 51.4841777,81.9772368" id="Fill-113" fill="#C3043F"></path>
                            <path d="M51.095485,81.4771612 C51.094157,81.4753859 51.092829,81.4736106 51.0915009,81.4713914 C51.092829,81.4736106 51.094157,81.4753859 51.095485,81.4771612" id="Fill-115" fill="#C3043F"></path>
                            <path d="M50.8926569,81.1823391 L50.8939849,81.1841144 L50.8926569,81.1823391 Z" id="Fill-117" fill="#C3043F"></path>
                            <path d="M52.377721,82.7732538 C52.3693101,82.7679278 52.3608992,82.7626018 52.3524883,82.7572758 C52.3608992,82.7626018 52.3693101,82.7679278 52.377721,82.7732538" id="Fill-119" fill="#C3043F"></path>
                            <path d="M52.2085532,82.6628148 C52.2010277,82.6574888 52.1939448,82.6521628 52.1864192,82.646393 C52.1939448,82.6521628 52.2010277,82.6574888 52.2085532,82.6628148" id="Fill-121" fill="#C3043F"></path>
                            <path d="M52.5433711,82.8613381 C52.5336321,82.8564559 52.5230078,82.8511299 52.5128261,82.8458039 C52.5230078,82.8511299 52.5336321,82.8564559 52.5433711,82.8613381" id="Fill-123" fill="#C3043F"></path>
                            <path d="M52.0341172,82.5286481 C52.0279197,82.5237659 52.0226076,82.5188837 52.01641,82.5140016 C52.0226076,82.5188837 52.0279197,82.5237659 52.0341172,82.5286481" id="Fill-125" fill="#C3043F"></path>
                            <path d="M53.318993,75.785107 C52.6115541,73.5603258 51.7778509,72.4154273 50.2702898,70.6257164 C49.5261358,69.743107 49.3094267,69.5302477 48.1828975,68.5251773 C47.9661884,68.3310211 47.578888,68.4628336 47.3397916,68.6725758 C47.0648755,68.9125992 46.7241407,69.1984898 46.6892165,69.6562711 C46.6471284,70.2200367 47.1432311,70.4186461 47.467847,70.8817711 C48.0346936,71.6886773 48.5209458,72.0199898 49.0824194,72.8309039 C49.6215057,73.6097555 49.8632886,74.0920289 50.2944681,74.9354508 C50.8666876,76.055857 51.2338394,76.5247711 51.5700967,77.8976695 C51.828894,78.9575133 51.9197864,80.6577164 51.5700967,81.3973805 C51.3238364,81.3247945 51.1035453,81.2539898 50.8926569,81.1822945 L50.8940001,81.1845211 C50.9607143,81.2847164 51.026533,81.3804586 51.0914562,81.4717477 C51.0927994,81.4735289 51.0941426,81.4753102 51.0954859,81.4770914 C51.160409,81.5674898 51.223989,81.6529898 51.2871212,81.734482 C51.2889122,81.7362633 51.2902554,81.7384898 51.2915987,81.7402711 C51.3538354,81.8204273 51.4156243,81.8965758 51.4769655,81.9682711 C51.479652,81.9713883 51.481443,81.9740602 51.4841295,81.9771773 C51.5441275,82.0475367 51.6032299,82.1129977 51.6618847,82.1757867 C51.6654666,82.1793492 51.6686009,82.183357 51.6721828,82.1869195 C51.7290466,82.247482 51.7854626,82.3040367 51.8414309,82.3570289 C51.8463561,82.361482 51.8508335,82.3659352 51.855311,82.3703883 C51.909936,82.4215992 51.9636655,82.4692477 52.0164996,82.5137789 C52.0223203,82.5186773 52.028141,82.5240211 52.0344094,82.5289195 C52.0854525,82.5712242 52.1360478,82.6099664 52.1866431,82.646482 C52.193807,82.6518258 52.2014187,82.6576148 52.2090304,82.6629586 C52.257387,82.6972477 52.3048481,82.7284195 52.3527569,82.7573648 C52.3608163,82.7622633 52.3697713,82.7680523 52.3778307,82.7733961 C52.4235008,82.8001148 52.4687231,82.8237164 52.5126023,82.8455367 C52.5233482,82.8508805 52.5336463,82.8566695 52.5439445,82.861568 C52.5860326,82.881607 52.6281207,82.8985289 52.6697611,82.9145602 C52.6809548,82.9190133 52.6930439,82.9239117 52.7042376,82.9279195 C52.7436392,82.9417242 52.7825932,82.952857 52.8210993,82.9630992 C52.8345317,82.9666617 52.8479641,82.9711148 52.8613965,82.974232 C52.8976639,82.982693 52.9330358,82.988482 52.9684078,82.9933805 C52.9831834,82.995607 52.9984068,82.9991695 53.0131824,83.0009508 C53.0463156,83.0045133 53.0790011,83.0058492 53.1112388,83.0067398 C53.1278054,83.0071852 53.144372,83.0094117 53.1609386,83.0089664 C53.1904898,83.0089664 53.2191456,83.0062945 53.2486968,83.0036227 C53.2675022,83.002732 53.2863075,83.0022867 53.3051128,83.0000602 C53.3297389,82.996943 53.3543649,82.9911539 53.3789909,82.9867008 C53.4009305,82.982693 53.4228701,82.9795758 53.4448096,82.974232 C53.4609285,82.9702242 53.4770473,82.9644352 53.4931662,82.959982 C53.5213742,82.9519664 53.5504777,82.9443961 53.578238,82.9341539 L53.578238,76.7153648 C53.5079418,76.4236852 53.4251088,76.119982 53.318993,75.785107" id="Fill-127" fill="#C3043F"></path>
                            <path d="M47.6567065,73.9162203 C47.6487382,73.8935848 47.6412127,73.8722808 47.6332444,73.8496453 C47.6412127,73.8722808 47.6487382,73.8940286 47.6567065,73.9162203" id="Fill-129" fill="#C3043F"></path>
                            <path d="M47.1869311,72.4843617 C47.2289857,72.6303828 47.2705977,72.77596 47.3148657,72.9210934 C47.2705977,72.77596 47.2289857,72.629939 47.1869311,72.4843617" id="Fill-131" fill="#C3043F"></path>
                            <path d="M48.5209906,74.559607 C48.6257632,73.8773883 48.6857612,73.2971461 48.2259259,72.735607 C48.0069781,72.4670836 47.5986336,72.4483805 47.187155,72.4844508 C47.2292431,72.6305133 47.271779,72.7770211 47.3165536,72.9226383 C47.4235649,73.2419273 47.529233,73.5496383 47.6335578,73.8497789 C47.6411695,73.8724898 47.6492289,73.8938648 47.6568406,73.9165758 C47.7580313,74.2055836 47.8578786,74.4874664 47.9563828,74.7608883 C48.275178,74.7283805 48.504424,74.667818 48.5209906,74.559607" id="Fill-133" fill="#C3043F"></path>
                            <path d="M14.3314122,111.106315 C14.3314122,111.649596 13.9991846,112.039245 13.4703965,112.039245 C12.9617569,112.039245 12.8793716,112.007627 12.8793716,111.342776 L12.8793716,110.19387 L13.4703965,110.19387 C13.9991846,110.19387 14.3314122,110.604893 14.3314122,111.106315 M14.0417205,109.102409 C14.0417205,109.380729 13.8541149,109.699573 13.4390543,109.699573 L12.8793716,109.699573 L12.8793716,108.39169 C12.9416083,108.381002 13.1077221,108.370315 13.180257,108.370315 C13.7811323,108.370315 14.0412728,108.628151 14.0417205,109.102409 M15.5448041,111.126799 C15.5448041,110.563034 15.1615335,110.142659 14.5078242,109.906198 C14.933183,109.730745 15.2022784,109.359799 15.2018306,108.968815 C15.2018306,108.339143 14.5485691,107.927229 13.6678525,107.927229 L11.064209,107.927229 L11.0749549,108.154338 C11.1156998,108.154338 11.1367438,108.154338 11.1882346,108.165026 C11.6964265,108.215791 11.7586632,108.359627 11.7586632,108.772877 L11.7586632,111.711049 C11.7591109,112.121182 11.6968742,112.265909 11.1882346,112.317565 C11.1367438,112.327362 11.1156998,112.327362 11.0754026,112.327362 L11.0646567,112.564713 L11.2092787,112.554471 C11.5724008,112.523299 11.7179183,112.50237 11.9153743,112.50237 C11.9153743,112.50237 13.0239936,112.523299 13.6880011,112.523299 C15.0469105,112.523299 15.5448041,111.803229 15.5448041,111.126799" id="Fill-135" fill="#000000"></path>
                            <path d="M20.375089,110.77233 L18.4457511,110.77233 C18.5599263,109.359799 18.8921539,108.814291 19.4106439,108.432659 C19.9291339,108.814291 20.2721074,109.359799 20.375089,110.77233 M22.2314443,112.575401 L22.2211462,112.338495 C22.1799535,112.338495 22.1589095,112.338495 22.1069709,112.328252 C21.5992268,112.276151 21.5365424,112.13276 21.5365424,111.719955 L21.5365424,111.606401 C21.5365424,109.89551 20.6858248,108.515487 19.399898,107.773596 C18.1345676,108.515487 17.2950436,109.906198 17.2950436,111.606401 L17.2950436,111.719065 C17.2950436,112.13276 17.2328069,112.276151 16.7250628,112.327362 C16.6722288,112.337604 16.6529757,112.337604 16.6104398,112.337604 L16.5996939,112.57451 L16.7456592,112.564713 C17.1083335,112.533541 17.2529555,112.513057 17.4508593,112.513057 L18.2594887,112.513057 C18.456497,112.513057 18.6015667,112.533541 18.9655843,112.564713 L19.1102063,112.575401 L19.0990126,112.337604 C19.0587155,112.337604 19.0372237,112.337604 18.9852851,112.327362 C18.4985851,112.276151 18.4256025,112.142112 18.4148566,111.771612 C18.4148566,111.575229 18.4148566,111.389534 18.4256025,111.214526 L20.4059835,111.214526 C20.4167294,111.390424 20.4167294,111.575229 20.4167294,111.771612 C20.4064312,112.142112 20.3338964,112.276151 19.8463009,112.327362 C19.7939146,112.337604 19.773766,112.337604 19.7321256,112.337604 L19.7218275,112.575401 L19.8664494,112.564713 C20.2295715,112.533541 20.375089,112.513057 20.5720973,112.513057 L21.3816222,112.513057 C21.5786305,112.513057 21.7237002,112.533541 22.0863746,112.564713" id="Fill-137" fill="#000000"></path>
                            <path d="M26.3899309,109.288104 C26.3899309,109.875471 25.9650199,110.235284 25.4769767,110.235284 C25.3426528,110.235284 25.1040042,110.215245 25.1040042,110.215245 L25.1040042,108.67001 C25.1040042,108.432659 25.2799684,108.422862 25.5499593,108.422862 C26.1194923,108.422862 26.3899309,108.835221 26.3899309,109.288104 M31.4306565,113.213979 C31.0057454,113.389877 30.4138251,113.389877 29.9683177,113.234909 C28.6304524,112.770893 27.3539283,110.97851 26.6603696,110.359971 C27.1573678,110.10169 27.5097439,109.659495 27.5097439,109.102409 C27.5097439,108.474518 26.8873769,107.948604 25.839651,107.948604 C25.4662308,107.948604 24.1404546,107.979776 24.1404546,107.979776 C23.942103,107.979776 23.7965856,107.958846 23.4334635,107.92812 L23.2888415,107.917432 L23.2995874,108.154338 C23.34078,108.154338 23.3609286,108.154338 23.4137627,108.165026 C23.9215067,108.215791 23.9841912,108.360518 23.9841912,108.772877 L23.9841912,111.719065 C23.9841912,112.13276 23.9215067,112.276151 23.4142104,112.328252 C23.3613764,112.337604 23.3412278,112.337604 23.2995874,112.337604 L23.2888415,112.575401 L23.4339112,112.564713 C23.7965856,112.533541 23.942103,112.513057 24.1404546,112.513057 L24.9486363,112.513057 C25.1456446,112.513057 25.2907143,112.533541 25.6533886,112.564713 L25.7998016,112.575401 L25.7881602,112.338495 C25.7465198,112.338495 25.726819,112.338495 25.6744327,112.328252 C25.1666886,112.276151 25.1040042,112.13276 25.1040042,111.719955 L25.1040042,110.565705 C25.2074335,110.576393 25.321161,110.58619 25.4469777,110.58619 C25.5598097,110.638291 25.6641345,110.669018 25.6945813,110.70019 C26.1512823,111.060002 28.0282339,113.584479 30.2897994,113.584479 C30.8920179,113.584479 31.346928,113.409916 31.4306565,113.213979" id="Fill-139" fill="#000000"></path>
                            <path d="M41.8358728,109.288104 C41.8358728,109.875471 41.410514,110.23662 40.9229185,110.23662 C40.7881469,110.23662 40.5494982,110.216135 40.5494982,110.216135 L40.5494982,108.67001 C40.5494982,108.432659 40.7263579,108.422862 40.9959011,108.422862 C41.5658819,108.422862 41.8358728,108.835221 41.8358728,109.288104 M46.8765983,113.21487 C46.452135,113.389877 45.8597669,113.389877 45.4138118,113.234909 C44.0763942,112.771784 42.8003178,110.97851 42.1063114,110.359971 C42.6033096,110.10258 42.9561335,109.659495 42.9561335,109.103299 C42.9556857,108.474518 42.3337664,107.948604 41.2855928,107.948604 C40.9121726,107.948604 39.5850531,107.979776 39.5850531,107.979776 C39.3875971,107.979776 39.2429751,107.959737 38.879853,107.92812 L38.7343356,107.917432 L38.7450815,108.155229 C38.7862741,108.155229 38.8068704,108.155229 38.8597045,108.165026 C39.3670008,108.216682 39.430133,108.360518 39.430133,108.772877 L39.430133,111.719955 C39.430133,112.13276 39.3674485,112.276151 38.8597045,112.328252 C38.8068704,112.338495 38.7862741,112.338495 38.7450815,112.338495 L38.7347833,112.575401 L38.879853,112.565604 C39.2429751,112.534432 39.3880449,112.513057 39.5855009,112.513057 L40.3941303,112.513057 C40.5920341,112.513057 40.7366561,112.534432 41.0993304,112.565604 L41.2452957,112.575401 L41.2345497,112.338495 C41.1924616,112.338495 41.1727608,112.338495 41.1199267,112.328252 C40.6121827,112.276151 40.5494982,112.13276 40.5494982,111.719955 L40.5494982,110.565705 C40.6538231,110.576393 40.7671028,110.58619 40.892024,110.58619 C41.0057515,110.638291 41.1091808,110.669018 41.1409708,110.70019 C41.5976718,111.060002 43.4750712,113.584479 45.7357412,113.584479 C46.3370642,113.584479 46.7933175,113.409916 46.8765983,113.21487" id="Fill-141" fill="#000000"></path>
                            <path d="M48.8559494,111.314632 L48.5855108,111.335562 C48.2859687,111.770632 48.1816438,111.926491 47.6322594,111.926491 L46.9163134,111.926491 C46.5845335,111.926491 46.5634894,111.905116 46.5634894,111.53239 L46.5634894,110.298874 L48.2438805,110.298874 L48.2438805,109.741788 L46.5634894,109.741788 L46.5634894,108.566609 L47.7867318,108.587984 C48.2223887,108.59778 48.2859687,108.628952 48.4095466,109.10321 L48.6271512,109.113898 L48.472231,107.980132 L45.5999398,107.980132 C45.4011406,107.980132 45.2565186,107.959648 44.8933965,107.928476 L44.7483268,107.917343 L44.7590727,108.15514 C44.7998176,108.15514 44.8204139,108.15514 44.8728002,108.165827 C45.3805443,108.216593 45.4436765,108.360429 45.4436765,108.773679 L45.4436765,111.729218 C45.4436765,112.142023 45.3814398,112.287195 44.8728002,112.338405 C44.8204139,112.349538 44.8007131,112.349538 44.7590727,112.349538 L44.7483268,112.585554 L44.8933965,112.575312 C45.2565186,112.544585 45.4015883,112.524101 45.5999398,112.524101 L47.3000318,112.524101 C47.756285,112.534343 48.472231,112.555273 48.472231,112.555273 C48.5447659,112.276062 48.5447659,111.832976 48.8559494,111.314632" id="Fill-143" fill="#000000"></path>
                            <path d="M53.2826808,111.318996 C53.282233,110.546379 52.8465761,110.13402 51.9658595,109.649074 C51.5709474,109.433098 51.0627556,109.205988 51.0627556,108.876457 C51.0627556,108.536684 51.3220006,108.299332 51.7370612,108.299332 C52.1310778,108.299332 52.5671825,108.444059 52.8367257,109.052355 L53.0435843,109.052355 L52.8882165,108.000527 C52.400621,108.031699 52.1104815,107.814832 51.5499034,107.814832 C50.6593364,107.814832 50.0777142,108.319816 50.0777142,109.071949 C50.0777142,109.608105 50.4609849,110.112645 51.0632034,110.432379 C51.8400428,110.833605 52.2345072,111.102129 52.2345072,111.503801 C52.2345072,111.947332 51.8928769,112.184238 51.3640887,112.184238 C50.7618703,112.184238 50.4090463,111.84402 50.2433803,111.15423 L49.9944334,111.15423 L50.1923372,112.37973 C50.4197922,112.451871 50.90694,112.679426 51.5194566,112.679426 C52.5564366,112.679426 53.2826808,111.968262 53.2826808,111.318996" id="Fill-145" fill="#000000"></path>
                            <path d="M59.1833922,107.526448 L58.9662354,107.526448 C58.7687793,107.938362 58.6340078,107.981112 58.3649124,107.981112 L57.1609231,107.981112 L57.1609231,107.496166 C57.1609231,107.083807 57.2236076,106.939526 57.7313516,106.88787 C57.7837379,106.877627 57.8038865,106.877627 57.8468701,106.877627 L57.8562728,106.640721 L57.7107553,106.650518 C57.348081,106.682135 57.2025635,106.701729 57.0055552,106.701729 L56.196478,106.701729 C55.9999175,106.701729 55.8539523,106.682135 55.4912779,106.650518 L55.3466559,106.640721 L55.3569541,106.876737 C55.3985945,106.876737 55.4187431,106.876737 55.4706816,106.88787 C55.9793212,106.939526 56.0411101,107.083807 56.0411101,107.496166 L56.0411101,107.981112 L54.9105512,107.980221 C54.6096659,107.980221 54.5684732,107.876909 54.6307099,107.649799 L54.4345971,107.649799 L54.0083429,109.051643 L54.2057989,109.052534 C54.4023594,108.639729 54.5474292,108.59787 54.8178678,108.59787 L56.0411101,108.59787 L56.0415579,111.719955 C56.0415579,112.133651 55.9793212,112.277041 55.4706816,112.328252 C55.4191908,112.338495 55.3985945,112.338495 55.3569541,112.338495 L55.3466559,112.575401 L55.4917257,112.565604 C55.8544,112.534432 55.9999175,112.513948 56.1973735,112.513948 L57.0055552,112.513948 C57.2030112,112.513948 57.348081,112.534432 57.7112031,112.565604 L57.8562728,112.575401 L57.8468701,112.338495 C57.8043343,112.338495 57.7837379,112.338495 57.7317994,112.328252 C57.2236076,112.277041 57.1609231,112.133651 57.1609231,111.719955 L57.1609231,108.59876 L58.2713334,108.59876 C58.5722188,108.59876 58.6138592,108.701182 58.5511747,108.928291 L58.7383326,108.928291" id="Fill-147" fill="#000000"></path>
                            <path d="M63.1230206,110.773221 L61.1941304,110.773221 C61.3083056,109.36069 61.6400855,108.815182 62.1585755,108.433549 C62.6770655,108.815182 63.020039,109.36069 63.1230206,110.773221 M64.9798236,112.575401 L64.9695255,112.339385 C64.9274373,112.339385 64.9072887,112.339385 64.8549025,112.328252 C64.3467106,112.277041 64.2849217,112.133651 64.2849217,111.720846 L64.2849217,111.607291 C64.2849217,109.896401 63.4342041,108.516377 62.1482773,107.773596 C60.8829468,108.515487 60.0425274,109.907088 60.0425274,111.607291 L60.0425274,111.719955 C60.0425274,112.133651 59.9802907,112.277041 59.4725467,112.328252 C59.4201604,112.338495 59.4004595,112.338495 59.3583714,112.338495 L59.3480732,112.575401 L59.4935907,112.565604 C59.8558173,112.534432 60.000887,112.513948 60.1983431,112.513948 L61.0074203,112.513948 C61.2039808,112.513948 61.349946,112.534432 61.7135159,112.565604 L61.8581378,112.575401 L61.8473919,112.338495 C61.806647,112.338495 61.7864985,112.338495 61.7332167,112.328252 C61.2469644,112.277041 61.1735341,112.142112 61.1632359,111.772502 C61.1632359,111.57612 61.1632359,111.391315 61.1735341,111.215416 L63.1548105,111.215416 C63.1646609,111.391315 63.1646609,111.57612 63.1646609,111.772502 C63.1548105,112.143448 63.0813802,112.277041 62.5937847,112.328252 C62.5427416,112.338495 62.5212498,112.338495 62.4800572,112.338495 L62.469759,112.575401 L62.6148287,112.565604 C62.9779508,112.534432 63.1234683,112.513948 63.3195811,112.513948 L64.129106,112.513948 C64.3265621,112.513948 64.4720795,112.535323 64.8343061,112.565604" id="Fill-149" fill="#000000"></path>
                            <path d="M71.3779362,107.918234 L71.2324187,107.928921 C70.8697444,107.959648 70.7242269,107.981023 70.5285619,107.981023 L69.7185892,107.981023 C69.5215809,107.981023 69.3760634,107.959648 69.0138368,107.928921 L68.8687671,107.918234 L68.8786175,108.15514 C68.9202579,108.15514 68.9408542,108.15514 68.9927928,108.165827 C69.4803883,108.217484 69.5529231,108.351523 69.5627735,108.722468 C69.5529231,110.896484 69.1799506,111.597405 68.5571358,112.060976 C67.9352165,111.596515 67.5720944,110.896484 67.562244,108.722468 C67.5720944,108.351523 67.6446293,108.216593 68.131777,108.165827 C68.1837156,108.15514 68.2043119,108.15514 68.2464,108.15514 L68.2562504,107.918234 L68.110733,107.928921 C67.7480586,107.959648 67.6025411,107.981023 67.4059806,107.981023 L66.5969034,107.981023 C66.3994474,107.981023 66.2552731,107.959648 65.8917033,107.928921 L65.7466336,107.918234 L65.7569317,108.15514 C65.7981244,108.15514 65.8187207,108.15514 65.8702115,108.165827 C66.3788511,108.216593 66.4415355,108.36132 66.4415355,108.773679 L66.4415355,108.887234 C66.4415355,110.586991 67.2819549,111.978593 68.5468377,112.720038 C69.8327644,111.978593 70.6830343,110.598124 70.6830343,108.887234 L70.6830343,108.773679 C70.6830343,108.36132 70.745271,108.217484 71.2539105,108.165827 C71.3049536,108.15514 71.3259977,108.15514 71.3685335,108.15514" id="Fill-151" fill="#000000"></path>
                            <path d="M75.536199,109.288995 C75.536199,109.876362 75.1108402,110.23751 74.6236924,110.23751 C74.4889209,110.23751 74.2507199,110.216135 74.2507199,110.216135 L74.2507199,108.67001 C74.2507199,108.433549 74.4262364,108.423752 74.696675,108.423752 C75.2662081,108.423752 75.536199,108.835221 75.536199,109.288995 M80.5773722,113.21487 C80.1529089,113.389877 79.5605409,113.389877 79.1150335,113.235799 C77.7762727,112.772674 76.5010918,110.979401 75.8066376,110.360862 C76.3040835,110.10258 76.6569074,109.660385 76.6569074,109.103299 C76.6569074,108.475409 76.0336449,107.949495 74.9868145,107.949495 C74.6129465,107.949495 73.2862748,107.980666 73.2862748,107.980666 C73.0883711,107.980666 72.9433013,107.959737 72.580627,107.92901 L72.4355573,107.918323 L72.4454077,108.155229 C72.4870481,108.155229 72.5076444,108.155229 72.5600307,108.165916 C73.0677747,108.217573 73.1304592,108.361409 73.1304592,108.773768 L73.1304592,111.720846 C73.1304592,112.133651 73.0682225,112.277041 72.5600307,112.328252 C72.5076444,112.339385 72.4874958,112.339385 72.4458554,112.339385 L72.4355573,112.575401 L72.580627,112.565604 C72.9437491,112.535323 73.0888188,112.513948 73.2862748,112.513948 L74.0949043,112.513948 C74.2919126,112.513948 74.4365346,112.535323 74.7996566,112.565604 L74.9456219,112.575401 L74.934876,112.339385 C74.8932356,112.339385 74.8726393,112.339385 74.8207007,112.328252 C74.3129566,112.277041 74.2507199,112.133651 74.2507199,111.720846 L74.2507199,110.567041 C74.3537015,110.577284 74.4678768,110.58708 74.5927979,110.58708 C74.7065255,110.638291 74.8108503,110.669909 74.8417448,110.70108 C75.2975503,111.061784 77.1753974,113.58537 79.4365152,113.58537 C80.0378382,113.58537 80.4940915,113.411252 80.5773722,113.21487" id="Fill-153" fill="#000000"></path>
                            <path d="M81.9340429,110.773221 L80.0051527,110.773221 C80.1184325,109.36069 80.4506601,108.815182 80.9691501,108.433549 C81.4876401,108.815182 81.8306136,109.36069 81.9340429,110.773221 M83.7903982,112.576737 L83.7801001,112.339385 C83.7380119,112.339385 83.7178634,112.339385 83.6654771,112.329143 C83.1568375,112.277041 83.0954963,112.133651 83.0954963,111.720846 L83.0954963,111.607291 C83.0954963,109.897291 82.2447787,108.516377 80.9584042,107.774487 C79.6939692,108.516377 78.853102,109.907979 78.853102,111.607291 L78.853102,111.720846 C78.853102,112.133651 78.7908653,112.277041 78.2840167,112.328252 C78.2311827,112.339385 78.2110341,112.339385 78.1693937,112.339385 L78.1586478,112.575401 L78.3041653,112.565604 C78.6668397,112.535323 78.8119094,112.513948 79.0089177,112.513948 L79.8179949,112.513948 C80.0150032,112.513948 80.1605206,112.535323 80.5236427,112.565604 L80.6682647,112.576737 L80.6584143,112.339385 C80.6172216,112.339385 80.5961776,112.339385 80.544239,112.329143 C80.0566435,112.277041 79.9845564,112.143448 79.9738105,111.772502 C79.9738105,111.57701 79.9738105,111.391315 79.9845564,111.215416 L81.9653851,111.216307 C81.9752356,111.391315 81.976131,111.57701 81.976131,111.772502 C81.9653851,112.143448 81.8924025,112.277041 81.4043593,112.329143 C81.3533162,112.339385 81.3322722,112.339385 81.2910795,112.339385 L81.2803336,112.576737 L81.4254034,112.565604 C81.7885254,112.535323 81.9340429,112.513948 82.1306034,112.513948 L82.9396806,112.513948 C83.1371367,112.513948 83.2826542,112.535323 83.6448807,112.566495" id="Fill-155" fill="#000000"></path>
                            <path d="M90.2409867,112.576648 L90.2311362,112.339296 C90.1886004,112.339296 90.168004,112.339296 90.1160655,112.329054 C89.6083214,112.276952 89.5460847,112.133562 89.5460847,111.720757 L89.5460847,108.775015 C89.5460847,108.36132 89.6083214,108.217484 90.1160655,108.166718 C90.168004,108.15514 90.1886004,108.15514 90.2306885,108.15514 L90.2409867,107.919124 L90.0954692,107.928921 C89.7323471,107.960538 89.5872774,107.981023 89.3902691,107.981023 L85.6981548,107.981023 C85.5011465,107.981023 85.3560768,107.959648 84.9925069,107.928921 L84.8474372,107.919124 L84.8586309,108.15514 C84.898928,108.15514 84.9199721,108.15514 84.9719106,108.166718 C85.4796547,108.217484 85.5418914,108.36132 85.5418914,108.775015 L85.5423391,111.720757 C85.5423391,112.133562 85.4801024,112.276952 84.9723584,112.329054 C84.9199721,112.339296 84.898928,112.339296 84.8586309,112.339296 L84.8474372,112.576648 L84.9925069,112.566851 C85.3560768,112.535234 85.5011465,112.513859 85.6981548,112.513859 L86.507232,112.513859 C86.704688,112.513859 86.84931,112.535234 87.2115366,112.566851 L87.3579496,112.576648 L87.3476514,112.339296 C87.3055633,112.339296 87.2849669,112.339296 87.2330284,112.329054 C86.7248366,112.276952 86.6630476,112.133562 86.6630476,111.720757 L86.6625999,108.650327 L88.425824,108.650327 L88.425824,111.720757 C88.425824,112.133562 88.3644828,112.276952 87.8545,112.329054 C87.8039047,112.339296 87.7833083,112.339296 87.7412202,112.339296 L87.7313698,112.576648 L87.8759918,112.566851 C88.2386661,112.535234 88.3846314,112.513859 88.5816396,112.513859 L89.3902691,112.513859 C89.5872774,112.513859 89.7327948,112.535234 90.0954692,112.566851" id="Fill-157" fill="#000000"></path>
                            <path d="M96.183249,107.527294 L95.9665398,107.527294 C95.7681883,107.939208 95.6334168,107.981958 95.3638736,107.981958 L94.1607798,107.981067 L94.1607798,107.496122 C94.1607798,107.083763 94.2230166,106.940372 94.7316561,106.888716 C94.7831469,106.877583 94.8037432,106.877583 94.8453836,106.877583 L94.8556818,106.641567 L94.7106121,106.651364 C94.3470422,106.682981 94.2019725,106.702575 94.0058597,106.702575 L93.1963348,106.702575 C92.9993265,106.702575 92.853809,106.682981 92.4906869,106.651364 L92.3460649,106.641567 L92.3563631,106.877583 C92.3980035,106.877583 92.4185998,106.877583 92.4705383,106.888716 C92.9787302,106.940372 93.0400714,107.083763 93.0400714,107.496122 L93.0400714,107.981067 L91.910408,107.981067 C91.6095226,107.981067 91.5678822,107.876864 91.6301189,107.650645 L91.4335584,107.650645 L91.0077518,109.052489 L91.2052079,109.052489 C91.4017684,108.639684 91.5472859,108.598716 91.8172768,108.598716 L93.0400714,108.598716 L93.0400714,111.720802 C93.0400714,112.133606 92.9787302,112.276997 92.4705383,112.329098 C92.4190475,112.339341 92.3980035,112.339341 92.3563631,112.339341 L92.3469604,112.576692 L92.4915824,112.56645 C92.8542567,112.535278 93.000222,112.513903 93.1963348,112.513903 L94.0058597,112.513903 C94.2024202,112.513903 94.34749,112.535278 94.7110598,112.56645 L94.8556818,112.576692 L94.8453836,112.339341 C94.804191,112.339341 94.7831469,112.339341 94.7316561,112.329098 C94.2234643,112.277888 94.1607798,112.133606 94.1607798,111.720802 L94.1607798,108.598716 L95.2702947,108.598716 C95.57118,108.598716 95.6137159,108.702028 95.5510315,108.928247 L95.7368461,108.928247" id="Fill-159" fill="#000000"></path>
                            <path d="M33.7921589,88.3679906 L33.5203771,88.388475 C32.839803,88.4463656 32.3728038,88.4846625 32.003861,88.4846625 L30.0001973,88.4846625 C29.6312545,88.4846625 29.1638076,88.4463656 28.4845767,88.388475 L28.2110039,88.3679906 L28.2307047,88.8137484 C28.3081648,88.8137484 28.3475664,88.8137484 28.4451751,88.8324516 C29.3979788,88.929975 29.7087146,89.1998344 29.7087146,89.9728969 L29.7087146,90.0494906 C29.7087146,96.2513578 28.8920257,98.1840141 27.219694,99.4584984 C25.5473623,98.1840141 24.8278344,96.2513578 24.8278344,90.0494906 L24.8278344,89.9724516 C24.8278344,89.1989437 25.1385702,88.9290844 26.0918216,88.8324516 C26.1894302,88.8137484 26.2274887,88.8137484 26.3053965,88.8137484 L26.3246496,88.3679906 L26.0533154,88.388475 C25.3722936,88.4463656 24.9048467,88.4846625 24.5354562,88.4846625 L22.4359747,88.4846625 C22.067032,88.4846625 21.6004805,88.4463656 20.9185632,88.3875844 L20.6476768,88.3679906 L20.6664822,88.8137484 C20.7434945,88.8137484 20.7824484,88.8137484 20.8796093,88.8315609 C21.8328607,88.9290844 22.144492,89.1989437 22.144492,89.9724516 L22.144492,90.0486 C22.144492,96.2513578 21.4245163,98.1831234 19.7535279,99.4584984 C18.079853,98.1831234 17.2631641,96.2513578 17.2631641,90.0486 L17.2631641,89.9724516 C17.2627164,89.1989437 17.5743476,88.9290844 18.5271513,88.8315609 C18.6243122,88.8137484 18.6632661,88.8137484 18.7407262,88.8137484 L18.760427,88.3679906 L18.4873019,88.3875844 C17.8071756,88.4463656 17.3410719,88.4846625 16.9716814,88.4846625 L14.9684654,88.4846625 C14.5990748,88.4846625 14.1316279,88.445475 13.4510539,88.3875844 L13.179272,88.3679906 L13.1985251,88.8124125 C13.2773284,88.8124125 13.3162823,88.8124125 13.4125477,88.8315609 C14.3653514,88.9290844 14.6769827,89.1989437 14.6769827,89.9724516 L14.6769827,90.1073813 C14.6769827,94.7435297 16.2521534,98.9557406 19.7535279,101.023327 C21.483171,99.9991078 22.7082044,98.434725 23.4859393,96.5799984 C24.264122,98.4543188 25.4891554,99.9991078 27.219694,101.023327 C30.7206207,98.9570766 32.2953437,94.7444203 32.294896,90.1073813 L32.294896,89.9728969 C32.294896,89.1998344 32.6065273,88.929975 33.5588832,88.8324516 C33.6560441,88.8137484 33.6954458,88.8137484 33.7729059,88.8137484" id="Fill-161" fill="#000000"></path>
                            <path d="M40.1122294,94.3581562 L46.2579923,94.3581562 L46.2579923,93.5472422 L40.1122294,93.5472422 L40.1122294,94.3581562 Z M50.0495062,100.599211 L50.0302531,100.155234 C49.9527931,100.155234 49.9133914,100.155234 49.8162305,100.136531 C48.8634268,100.038117 48.5531388,99.7687031 48.5531388,98.9956406 L48.552691,89.9918672 C48.552691,89.21925 48.8625313,88.9493906 49.8157828,88.8527578 C49.9133914,88.8322734 49.9523453,88.8322734 50.0298054,88.8322734 L50.0490585,88.3882969 L49.7772766,88.4074453 C49.0962548,88.4666719 48.6297033,88.5054141 48.2594173,88.5054141 L46.5490272,88.5054141 C46.1800845,88.5054141 45.7126375,88.4666719 45.0320635,88.4074453 L44.7598339,88.3882969 L44.7795347,88.8322734 C44.8578902,88.8322734 44.8963964,88.8322734 44.9931096,88.8518672 C45.9454655,88.9493906 46.2579923,89.21925 46.2579923,89.9918672 L46.2579923,92.5417266 L40.1122294,92.5417266 L40.1117816,89.9909766 C40.1117816,89.21925 40.4229652,88.9485 41.3753211,88.8518672 C41.4729298,88.8322734 41.5123314,88.8322734 41.5897915,88.8322734 L41.6099401,88.3882969 L41.3372627,88.4074453 C40.6566886,88.4657812 40.1901372,88.5045234 39.8207467,88.5045234 L38.1090134,88.5045234 C37.7396228,88.5045234 37.2730714,88.4657812 36.5920496,88.4074453 L36.3193722,88.3882969 L36.339073,88.8322734 C36.4178764,88.8322734 36.4563825,88.8322734 36.5535434,88.8518672 C37.5067949,88.9485 37.8170829,89.21925 37.8170829,89.9909766 L37.8175307,98.99475 C37.8175307,99.7687031 37.5076904,100.038117 36.5539912,100.135195 C36.4568303,100.153898 36.4183241,100.153898 36.3395208,100.153898 L36.31982,100.59832 L36.5929451,100.578727 C37.2730714,100.521281 37.7400706,100.482539 38.1090134,100.482539 L39.8216422,100.482539 C40.1901372,100.482539 40.6571364,100.521281 41.3377104,100.578727 L41.6103878,100.59832 L41.5902392,100.153898 C41.5127792,100.153898 41.4733775,100.153898 41.3762166,100.135195 C40.4234129,100.038117 40.1122294,99.7687031 40.1122294,98.99475 L40.1122294,95.3627812 L46.2579923,95.3627812 L46.2579923,98.9956406 C46.25844,99.7687031 45.9459133,100.038117 44.9931096,100.135195 C44.8968442,100.153898 44.8578902,100.153898 44.7799824,100.153898 L44.7602816,100.599211 L45.0325112,100.579617 C45.7130853,100.522172 46.1805322,100.482539 46.5490272,100.482539 L48.2603128,100.482539 C48.6297033,100.482539 49.0971503,100.522172 49.7777243,100.579617 L50.0495062,100.599211 Z" id="Fill-163" fill="#000000"></path>
                            <path d="M58.6451566,100.5993 L58.6250081,100.154878 C58.547548,100.154878 58.5085941,100.154878 58.4118809,100.136175 C57.4586295,100.038206 57.1469982,99.7687922 57.1469982,98.9952844 L57.1465505,47.9157141 C57.1465505,47.1430969 57.4586295,46.8732375 58.4118809,46.7766047 C58.5076986,46.7570109 58.5471002,46.7570109 58.6245603,46.7570109 L58.6442611,46.3125891 L58.3720315,46.3321828 C57.6914575,46.3900734 57.2244583,46.4283703 56.8555155,46.4283703 L55.1446777,46.4283703 C54.7743917,46.4283703 54.3073925,46.3900734 53.6272662,46.3321828 L53.3554843,46.3116984 L53.3747374,46.7565656 C53.4521974,46.7565656 53.4911513,46.7565656 53.5883122,46.7766047 C54.5411159,46.8732375 54.8518517,47.1430969 54.8518517,47.9157141 L54.8522995,98.9952844 C54.8522995,99.7687922 54.5415637,100.038206 53.58876,100.135284 C53.4915991,100.154878 53.4526452,100.154878 53.3747374,100.153987 L53.355932,100.5993 L53.6272662,100.579706 C54.308288,100.522261 54.7748394,100.482628 55.1455732,100.482628 L56.856411,100.482628 C57.2258015,100.482628 57.6919052,100.522261 58.3724793,100.579706" id="Fill-165" fill="#000000"></path>
                            <path d="M57.555074,43.9750102 L57.555074,43.7430023 C56.8556946,43.4531039 56.4075008,43.0077914 56.1160181,42.3131039 L55.8836378,42.3131039 C55.5908119,43.0077914 55.144409,43.4531039 54.4441341,43.742557 L54.4441341,43.9745648 C55.144409,44.264018 55.5908119,44.7084398 55.8840856,45.4044633 L56.1160181,45.4049086 C56.4075008,44.7084398 56.8556946,44.264018 57.555074,43.9750102" id="Fill-166" fill="#C3043F"></path>
                            <path d="M70.2519891,97.3494539 C70.2519891,95.2970086 68.8711401,94.156118 66.790464,93.0526336 C65.5846838,92.3739773 64.47696,91.696657 64.4765122,90.7873289 C64.4765122,89.8392586 65.1763394,89.1610477 66.3239126,89.1610477 C67.3541764,89.1610477 68.5017496,89.4905789 69.2203821,91.1938992 L69.6094735,91.1938992 L69.2203821,88.6783289 C68.0351982,88.7175164 67.2762686,88.1760164 65.8372126,88.1760164 C63.5622147,88.1760164 62.0842048,89.3543133 62.0842048,91.3101258 C62.0846526,92.7422508 63.2510312,94.0385555 64.8069488,94.8721805 C66.8871772,95.9747742 67.6855085,96.7300242 67.6855085,97.852657 C67.6855085,99.0915164 66.7721065,99.7688367 65.3518558,99.7688367 C63.7565365,99.7688367 62.8234336,98.8782117 62.3953884,97.0007742 L61.8504814,97.0007742 L62.3371814,100.058735 C62.9402954,100.25111 64.1653287,100.792165 65.7400517,100.792165 C68.4050365,100.792165 70.2519891,99.0714773 70.2519891,97.3494539" id="Fill-167" fill="#000000"></path>
                            <path d="M92.7280819,102.068297 C91.8146799,102.473977 90.2395091,102.473977 89.0726828,102.068297 C85.377882,100.774664 81.2357829,95.2870781 79.4273364,93.643875 C80.6322211,92.9487422 81.450701,91.9249687 82.2270927,90.5529609 C82.6748388,89.7611953 83.1216894,89.0077266 84.4438836,88.8527578 C84.54194,88.8331641 84.5804462,88.8331641 84.658354,88.8331641 L84.6780549,88.3891875 L84.4049297,88.4083359 C83.7252512,88.4662266 83.258252,88.5049687 82.887966,88.5049687 L81.3710022,88.5049687 C81.0025072,88.5049687 80.535508,88.4662266 79.8549339,88.4074453 L79.583152,88.3891875 L79.6028529,88.8331641 C79.6798652,88.8331641 79.7183714,88.8331641 79.81598,88.8527578 C80.5552088,88.9297969 80.8851977,89.2196953 80.8851977,89.7024141 C80.8851977,90.8241562 78.960785,93.2190469 77.0153282,93.2190469 L77.0153282,89.9918672 C77.0153282,89.21925 77.3269595,88.9489453 78.2793154,88.8527578 C78.3769241,88.8322734 78.415878,88.8322734 78.4937858,88.8322734 L78.5125911,88.3891875 L78.241257,88.4074453 C77.5597874,88.4662266 77.093236,88.5049687 76.7238455,88.5049687 L75.0130077,88.5049687 C74.6431694,88.5049687 74.1766179,88.4662266 73.4960439,88.4074453 L73.2238143,88.3882969 L73.2426196,88.8322734 C73.3205274,88.8322734 73.3594813,88.8322734 73.4561945,88.8527578 C74.4098937,88.9489453 74.7210772,89.21925 74.7210772,89.9918672 L74.7215249,98.9956406 C74.7215249,99.7687031 74.4103414,100.039008 73.45709,100.136086 C73.3599291,100.154789 73.3209752,100.154789 73.2426196,100.154789 L73.224262,100.599211 L73.4964916,100.579617 C74.1770657,100.522172 74.6431694,100.482539 75.0134554,100.482539 L76.7242932,100.482539 C77.0936838,100.482539 77.5597874,100.522172 78.2417047,100.579617 L78.5130389,100.599211 L78.4937858,100.154789 C78.4163257,100.154789 78.3773718,100.154789 78.2802109,100.136086 C77.3274072,100.039008 77.0153282,99.7687031 77.0153282,98.9956406 L77.0153282,94.2815625 C79.7774738,96.60075 84.0364347,102.840023 89.9283256,102.840914 C91.426484,102.840914 92.5924148,102.416086 92.7280819,102.068297" id="Fill-168" fill="#000000"></path>
                            <path d="M92.7092766,100.600146 L92.689128,100.155724 C92.6112202,100.155724 92.5722663,100.155724 92.4760008,100.13613 C91.5231972,100.039052 91.2115659,99.7687477 91.2115659,98.9961305 L91.2111181,89.9928023 C91.2111181,89.2197398 91.5223017,88.9489898 92.4755531,88.8528023 C92.5718185,88.8332086 92.6107724,88.8332086 92.6886802,88.8332086 L92.7088288,88.389232 L92.4370469,88.4083805 C91.7555774,88.4662711 91.2885782,88.5050133 90.9191877,88.5050133 L89.2083498,88.5050133 C88.8385116,88.5050133 88.3715124,88.4662711 87.6913861,88.4074898 L87.4191564,88.389232 L87.4388573,88.8332086 C87.5158696,88.8332086 87.5552713,88.8332086 87.6528799,88.8528023 C88.6056836,88.9489898 88.9164194,89.2197398 88.9164194,89.9919117 L88.9168671,98.9961305 C88.9168671,99.7687477 88.6061313,100.039052 87.6533277,100.13613 C87.555719,100.154834 87.5163173,100.154834 87.4388573,100.154834 L87.4196042,100.599255 L87.6918338,100.579662 C88.3719601,100.522216 88.8385116,100.48392 89.2087976,100.48392 L90.9196354,100.48392 C91.2890259,100.48392 91.7564729,100.522216 92.4370469,100.579662" id="Fill-169" fill="#000000"></path>
                            <path d="M91.6196417,86.0509852 L91.6196417,85.8194227 C90.9198145,85.5299695 90.4720684,85.085993 90.180138,84.3899695 L89.94731,84.3899695 C89.6549318,85.085993 89.2080812,85.5299695 88.5078063,85.8194227 L88.5078063,86.0509852 C89.2080812,86.3413289 89.6549318,86.7844148 89.94731,87.4808836 L90.180138,87.4808836 C90.4720684,86.7853055 90.9198145,86.3413289 91.6196417,86.0509852" id="Fill-170" fill="#C3043F"></path>
                            <path d="M34.9395083,109.579917 L34.9395083,109.347909 C34.2401289,109.057566 33.7919351,108.613144 33.5004524,107.917566 L33.2680721,107.917566 C32.9752462,108.613144 32.5283956,109.057566 31.8281207,109.347909 L31.8281207,109.579917 C32.5283956,109.86848 32.9761417,110.312902 33.2680721,111.00937 L33.5004524,111.00937 C33.7919351,110.312902 34.2401289,109.86848 34.9395083,109.579917" id="Fill-171" fill="#C3043F"></path>
                        </g>
                    </g>
                </g>
            </g>
        </g>
    </g>
</svg>